<svg width="399" height="399" viewBox="0 0 399 399" fill="none" xmlns="http://www.w3.org/2000/svg">
<path d="M199.5 399C173.301 399 147.359 393.84 123.155 383.814C98.9502 373.788 76.9575 359.093 58.4322 340.568C39.9069 322.042 25.2118 300.05 15.186 275.845C5.16021 251.641 -1.10108e-05 225.699 -8.72042e-06 199.5C-6.43006e-06 173.301 5.16022 147.359 15.186 123.155C25.2118 98.9502 39.9069 76.9575 58.4322 58.4322C76.9575 39.9069 98.9502 25.2118 123.155 15.186C147.359 5.1602 173.301 -1.2156e-05 199.5 -8.72042e-06L199.5 199.5L199.5 399Z" fill="#02CC66"/>
<circle cx="200" cy="195" r="126" fill="#02CC66"/>
<path d="M199.5 77C184.07 77 168.79 80.0392 154.535 85.9442C140.279 91.8491 127.326 100.504 116.415 111.415C105.504 122.326 96.8491 135.279 90.9441 149.535C85.0392 163.79 82 179.07 82 194.5C82 209.93 85.0392 225.21 90.9441 239.465C96.8491 253.721 105.504 266.674 116.415 277.585C127.326 288.496 140.279 297.151 154.535 303.056C168.79 308.961 184.07 312 199.5 312L199.5 194.5L199.5 77Z" fill="white"/>
</svg>
